REM DIRINDEX 1\2\4,1\2\5,1\3\6,1\3\7,1\3\8
REM DIRNAME cjc092,folder01,folder02,folder03,folder04,folder05,folder06,folder07
TITLE ""
FILE "LEVEL5-005-midashigo.mp3" MP3
  TRACK 01 AUDIO
    TITLE "0:"
    INDEX 01 00:00:00
  TRACK 02 AUDIO
    TITLE "6:cjc092_3548"
    INDEX 01 00:00:05
  TRACK 03 AUDIO
    TITLE "0:"
    INDEX 01 00:03:33
  TRACK 04 AUDIO
    TITLE "7:cjc092_3549"
    INDEX 01 00:04:07
  TRACK 05 AUDIO
    TITLE "8:cjc092_3550"
    INDEX 01 00:05:50
  TRACK 06 AUDIO
    TITLE "0:"
    INDEX 01 00:07:39
  TRACK 07 AUDIO
    TITLE "7:cjc092_3551"
    INDEX 01 00:08:01
  TRACK 08 AUDIO
    TITLE "8:cjc092_3552"
    INDEX 01 00:09:38
  TRACK 09 AUDIO
    TITLE "0:"
    INDEX 01 00:11:52
  TRACK 10 AUDIO
    TITLE "7:cjc092_3553"
    INDEX 01 00:12:11
  TRACK 11 AUDIO
    TITLE "8:cjc092_3554"
    INDEX 01 00:13:39
  TRACK 12 AUDIO
    TITLE "0:"
    INDEX 01 00:15:21
  TRACK 13 AUDIO
    TITLE "7:cjc092_3555"
    INDEX 01 00:15:58
  TRACK 14 AUDIO
    TITLE "8:cjc092_3556"
    INDEX 01 00:17:10
  TRACK 15 AUDIO
    TITLE "0:"
    INDEX 01 00:20:73
  TRACK 16 AUDIO
    TITLE "7:cjc092_3557"
    INDEX 01 00:21:33
  TRACK 17 AUDIO
    TITLE "8:cjc092_3558"
    INDEX 01 00:22:68
  TRACK 18 AUDIO
    TITLE "0:"
    INDEX 01 00:26:54
  TRACK 19 AUDIO
    TITLE "7:cjc092_3559"
    INDEX 01 00:27:16
  TRACK 20 AUDIO
    TITLE "8:cjc092_3560"
    INDEX 01 00:28:45
  TRACK 21 AUDIO
    TITLE "0:"
    INDEX 01 00:31:45
  TRACK 22 AUDIO
    TITLE "7:cjc092_3561"
    INDEX 01 00:32:11
  TRACK 23 AUDIO
    TITLE "8:cjc092_3562"
    INDEX 01 00:33:34
  TRACK 24 AUDIO
    TITLE "0:"
    INDEX 01 00:35:61
  TRACK 25 AUDIO
    TITLE "7:cjc092_3563"
    INDEX 01 00:36:21
  TRACK 26 AUDIO
    TITLE "8:cjc092_3564"
    INDEX 01 00:37:54
  TRACK 27 AUDIO
    TITLE "0:"
    INDEX 01 00:42:12
  TRACK 28 AUDIO
    TITLE "7:cjc092_3565"
    INDEX 01 00:42:53
  TRACK 29 AUDIO
    TITLE "8:cjc092_3566"
    INDEX 01 00:44:11
  TRACK 30 AUDIO
    TITLE "0:"
    INDEX 01 00:46:39
  TRACK 31 AUDIO
    TITLE "7:cjc092_3567"
    INDEX 01 00:46:74
  TRACK 32 AUDIO
    TITLE "8:cjc092_3568"
    INDEX 01 00:48:20
  TRACK 33 AUDIO
    TITLE "0:"
    INDEX 01 00:50:70
  TRACK 34 AUDIO
    TITLE "7:cjc092_3569"
    INDEX 01 00:51:30
  TRACK 35 AUDIO
    TITLE "8:cjc092_3570"
    INDEX 01 00:52:63
  TRACK 36 AUDIO
    TITLE "0:"
    INDEX 01 00:55:42
  TRACK 37 AUDIO
    TITLE "7:cjc092_3571"
    INDEX 01 00:56:04
  TRACK 38 AUDIO
    TITLE "8:cjc092_3572"
    INDEX 01 00:57:35
  TRACK 39 AUDIO
    TITLE "0:"
    INDEX 01 00:58:60
  TRACK 40 AUDIO
    TITLE "7:cjc092_3573"
    INDEX 01 00:59:16
  TRACK 41 AUDIO
    TITLE "8:cjc092_3574"
    INDEX 01 01:00:45
  TRACK 42 AUDIO
    TITLE "0:"
    INDEX 01 01:03:12
  TRACK 43 AUDIO
    TITLE "7:cjc092_3575"
    INDEX 01 01:03:45
  TRACK 44 AUDIO
    TITLE "8:cjc092_3576"
    INDEX 01 01:04:72
  TRACK 45 AUDIO
    TITLE "0:"
    INDEX 01 01:09:48
  TRACK 46 AUDIO
    TITLE "7:cjc092_3577"
    INDEX 01 01:10:08
  TRACK 47 AUDIO
    TITLE "8:cjc092_3578"
    INDEX 01 01:11:31
  TRACK 48 AUDIO
    TITLE "0:"
    INDEX 01 01:15:48
  TRACK 49 AUDIO
    TITLE "7:cjc092_3579"
    INDEX 01 01:16:01
  TRACK 50 AUDIO
    TITLE "8:cjc092_3580"
    INDEX 01 01:17:39
  TRACK 51 AUDIO
    TITLE "0:"
    INDEX 01 01:18:51
  TRACK 52 AUDIO
    TITLE "7:cjc092_3581"
    INDEX 01 01:19:01
  TRACK 53 AUDIO
    TITLE "8:cjc092_3582"
    INDEX 01 01:20:22
  TRACK 54 AUDIO
    TITLE "0:"
    INDEX 01 01:24:28
  TRACK 55 AUDIO
    TITLE "7:cjc092_3583"
    INDEX 01 01:24:61
  TRACK 56 AUDIO
    TITLE "8:cjc092_3584"
    INDEX 01 01:26:09
  TRACK 57 AUDIO
    TITLE "0:"
    INDEX 01 01:27:57
  TRACK 58 AUDIO
    TITLE "7:cjc092_3585"
    INDEX 01 01:28:18
  TRACK 59 AUDIO
    TITLE "8:cjc092_3586"
    INDEX 01 01:29:48
  TRACK 60 AUDIO
    TITLE "0:"
    INDEX 01 01:32:64
  TRACK 61 AUDIO
    TITLE "7:cjc092_3587"
    INDEX 01 01:33:19
  TRACK 62 AUDIO
    TITLE "8:cjc092_3588"
    INDEX 01 01:34:48
  TRACK 63 AUDIO
    TITLE "0:"
    INDEX 01 01:38:30
